<svg xmlns="http://www.w3.org/2000/svg" height="62.338" width="281.375"><g fill-rule="evenodd"><path d="M31.169-.001c17.168 0 31.17 14.001 31.17 31.17 0 17.167-14.002 31.168-31.17 31.168S0 48.337 0 31.17C0 14 14.002-.001 31.169-.001" fill="#35445f"/><path d="M37.98 40.49v-6.265h-6.46v-6.146h19.113v6.146h-6.39v12.404h-.053v.054H19.22v-31.03h18.718v6.195H25.091v18.641h12.89" fill="#fff"/><path d="M265.373 50.996h5.312v.66c0 1.288.22 2.2.652 2.746.433.548 1.157.821 2.17.821.804 0 1.433-.244 1.903-.732.466-.493.702-1.161.702-2.005 0-1.184-1.11-2.502-3.317-3.942l-.32-.204a108.617 108.617 0 0 1-2.783-1.859c-.693-.486-1.206-.89-1.547-1.202-.913-.835-1.544-1.622-1.876-2.361-.342-.74-.509-1.652-.509-2.73 0-2.093.714-3.754 2.144-4.997 1.425-1.241 3.342-1.857 5.755-1.857 2.495 0 4.372.576 5.622 1.726 1.26 1.147 1.893 2.858 1.893 5.128v.657h-5.165v-.132c0-1.178-.214-2.064-.637-2.65-.422-.596-1.053-.892-1.896-.892-.77 0-1.384.232-1.839.694-.453.461-.688 1.091-.688 1.876 0 1.346 1.447 2.877 4.333 4.591.745.45 1.322.803 1.727 1.064 1.633 1.038 2.772 2.032 3.413 2.984.634.954.952 2.092.952 3.414 0 2.418-.71 4.25-2.13 5.478-1.423 1.23-3.523 1.844-6.313 1.844-2.617 0-4.532-.582-5.757-1.75-1.223-1.169-1.835-3-1.835-5.494 0-.083.006-.23.015-.418.012-.193.018-.342.018-.458zm-15.395 7.696v-24.95h13.48V37.6h-8.22v5.953h7.566v3.84h-7.565v7.277h8.526v4.022h-13.787zm-8.357 0v-24.95h5.095v24.95h-5.095zm-2.91-13.122V58.23c-1.68.309-3.101.525-4.261.654a28.101 28.101 0 0 1-3.164.197c-1.526 0-2.812-.139-3.867-.424-1.053-.282-1.914-.709-2.583-1.286-1.022-.901-1.751-2.173-2.182-3.811-.426-1.648-.64-4.285-.64-7.93 0-2.512.131-4.463.395-5.847.264-1.394.705-2.549 1.329-3.472.64-.96 1.548-1.68 2.713-2.16 1.168-.479 2.599-.714 4.293-.714 2.592 0 4.575.645 5.927 1.944 1.36 1.3 2.04 3.193 2.04 5.681v.376h-5.12v-.305c0-1.41-.25-2.456-.74-3.142-.493-.681-1.248-1.022-2.258-1.022-1.274 0-2.154.568-2.632 1.698-.481 1.136-.722 3.631-.722 7.49 0 4.07.287 6.634.872 7.684.582 1.059 1.668 1.584 3.255 1.584.353 0 .733-.03 1.144-.087.415-.052.895-.15 1.449-.283v-5.58h-2.875V45.57h7.627zm-30.806.588c0 3.672.231 6.096.693 7.27.462 1.17 1.29 1.761 2.483 1.761 1.238 0 2.09-.566 2.559-1.694.468-1.143.7-3.67.7-7.593 0-3.47-.233-5.774-.695-6.9-.463-1.125-1.294-1.691-2.5-1.691-1.225 0-2.073.578-2.54 1.726-.469 1.151-.7 3.523-.7 7.121zm3.24 12.924c-1.15 0-2.225-.15-3.216-.458-1.001-.306-1.796-.722-2.393-1.252-1.027-.889-1.759-2.183-2.204-3.875-.446-1.694-.67-4.211-.67-7.56 0-2.591.132-4.618.404-6.074.273-1.454.718-2.638 1.333-3.55.612-.925 1.496-1.635 2.651-2.132 1.155-.496 2.505-.743 4.065-.743 1.19 0 2.286.154 3.276.464.993.308 1.805.741 2.437 1.296.982.866 1.678 2.074 2.1 3.607.423 1.544.636 3.82.636 6.826 0 3.137-.133 5.435-.403 6.896-.272 1.46-.729 2.667-1.369 3.627-.613.922-1.496 1.645-2.658 2.161-1.163.51-2.488.767-3.989.767zm-21.781-.39v-24.95h5.26v20.554h7.629v4.396h-12.89zm-14.482-12.534c0 3.672.232 6.096.69 7.27.465 1.17 1.293 1.761 2.484 1.761 1.238 0 2.09-.566 2.559-1.694.471-1.143.7-3.67.7-7.593 0-3.47-.229-5.774-.695-6.9-.46-1.125-1.293-1.691-2.5-1.691-1.221 0-2.071.578-2.539 1.726-.467 1.151-.699 3.523-.699 7.121zm3.238 12.924c-1.15 0-2.223-.15-3.215-.458-1-.306-1.798-.722-2.393-1.252-1.026-.889-1.76-2.183-2.202-3.875-.448-1.694-.672-4.211-.672-7.56 0-2.591.132-4.618.403-6.074.273-1.454.718-2.638 1.335-3.55.613-.925 1.496-1.635 2.651-2.132 1.156-.496 2.508-.743 4.064-.743 1.19 0 2.288.154 3.274.464.994.308 1.809.741 2.438 1.296.983.866 1.68 2.074 2.102 3.607.421 1.544.635 3.82.635 6.826 0 3.137-.133 5.435-.403 6.896-.273 1.46-.728 2.667-1.367 3.627-.613.922-1.499 1.645-2.659 2.161-1.162.51-2.489.767-3.991.767zm-29.765-.39v-24.95h7.001L160.13 46.7a75.553 75.553 0 0 1 1.494 4.424 57.415 57.415 0 0 1 1.108 4.236c-.121-1.073-.22-2.2-.287-3.386a72.353 72.353 0 0 1-.1-3.853l-.304-14.38h4.82v24.951h-6.836l-5.054-13.648a69.314 69.314 0 0 1-1.2-3.69 126.608 126.608 0 0 1-1.323-4.737c.123 1.577.22 2.969.29 4.163.063 1.195.102 2.207.117 3.044l.287 14.868h-4.786zm-14.115 0h-5.191v-24.95h5.191v9.707h5.688v-9.708h5.228v24.951h-5.229V47.648h-5.687v11.044zm-7.575-8.529c.022.136.035.286.041.441.005.161.01.398.01.71 0 2.483-.671 4.395-2.016 5.745-1.338 1.345-3.257 2.023-5.752 2.023-1.146 0-2.22-.15-3.22-.458-.998-.306-1.797-.722-2.397-1.252-1.021-.889-1.75-2.155-2.182-3.788-.428-1.634-.64-4.285-.64-7.953 0-2.512.133-4.463.397-5.847.266-1.394.704-2.549 1.328-3.472.619-.935 1.501-1.65 2.644-2.144 1.15-.49 2.496-.73 4.038-.73 2.527 0 4.427.639 5.71 1.927 1.282 1.287 1.924 3.2 1.924 5.735v.47h-5.234v-.47c0-1.324-.2-2.3-.615-2.935-.41-.642-1.042-.96-1.89-.96-1.172 0-1.975.562-2.42 1.675-.437 1.115-.658 3.714-.658 7.786 0 3.41.23 5.686.686 6.829.457 1.128 1.279 1.694 2.46 1.694.849 0 1.484-.35 1.91-1.035.419-.686.632-1.725.632-3.13a8.62 8.62 0 0 0-.017-.408 8.708 8.708 0 0 1-.018-.453h5.279zm-31.836 8.53V33.74h13.486v3.86h-8.224v5.952h7.564v3.84h-7.564v7.277h8.53v4.022H94.829zm-13.365 0V37.835h-5.683V33.74h16.767v4.095h-5.72v20.856h-5.364" fill="#9ddeda"/><path d="M100.18 15.943c0 3.673.23 6.097.692 7.27.461 1.17 1.287 1.76 2.484 1.76 1.235 0 2.089-.565 2.558-1.695.467-1.14.698-3.67.698-7.589 0-3.471-.231-5.775-.692-6.901-.463-1.126-1.293-1.692-2.5-1.692-1.226 0-2.074.578-2.542 1.726-.467 1.15-.698 3.523-.698 7.121zm14.833-12.416h8.24c3.212 0 5.47.92 6.776 2.76 1.297 1.838 1.95 5.076 1.95 9.725 0 4.637-.653 7.87-1.95 9.707-1.306 1.84-3.564 2.76-6.775 2.76h-8.24V3.527zm35.282 24.952V3.527h5.259V24.08h7.629v4.4h-12.888zm-16.055 0V3.527h13.484v3.857h-8.221v5.954h7.565v3.84h-7.566v7.276h8.53v4.025H134.24zM120.31 7.315v17.254h2.246c1.657 0 2.799-.549 3.423-1.65.631-1.1.941-3.426.941-6.976 0-3.552-.31-5.879-.941-6.977-.624-1.103-1.766-1.651-3.423-1.651h-2.246zm-16.89 21.551c-1.151 0-2.224-.15-3.218-.456-1-.306-1.794-.721-2.39-1.254-1.028-.887-1.762-2.182-2.206-3.874-.444-1.692-.671-4.21-.671-7.559 0-2.592.134-4.619.405-6.074.272-1.456.717-2.639 1.335-3.552.612-.924 1.494-1.634 2.65-2.13 1.155-.497 2.506-.745 4.065-.745 1.19 0 2.286.156 3.274.467.995.307 1.807.74 2.437 1.294.982.866 1.68 2.073 2.103 3.609.42 1.541.634 3.817.634 6.824 0 3.138-.132 5.435-.405 6.896-.269 1.462-.727 2.667-1.368 3.627-.611.923-1.495 1.646-2.656 2.158-1.162.515-2.489.77-3.99.77zM92.48 15.355v12.662c-1.68.307-3.099.525-4.26.654a28.085 28.085 0 0 1-3.164.195c-1.525 0-2.813-.138-3.87-.422-1.052-.28-1.912-.71-2.581-1.288-1.022-.9-1.75-2.17-2.184-3.81-.426-1.647-.64-4.285-.64-7.93 0-2.512.133-4.462.398-5.848.266-1.392.703-2.547 1.327-3.471.643-.96 1.55-1.68 2.715-2.16 1.168-.48 2.598-.715 4.29-.715 2.594 0 4.574.646 5.931 1.946 1.357 1.299 2.038 3.193 2.038 5.681v.375h-5.12v-.304c0-1.41-.248-2.455-.74-3.142-.491-.682-1.248-1.023-2.257-1.023-1.277 0-2.155.567-2.634 1.698-.48 1.138-.722 3.633-.722 7.49 0 4.07.288 6.634.871 7.686.584 1.055 1.67 1.583 3.257 1.583.354 0 .735-.03 1.144-.087.415-.053.893-.151 1.449-.284v-5.58h-2.876v-3.906h7.628" fill="#35445f"/></g></svg>